<?xml version="1.0" encoding="utf-8"?>
<!-- Svg Vector Icons : http://www.onlinewebfonts.com/icon -->
<!DOCTYPE svg PUBLIC "-//W3C//DTD SVG 1.1//EN" "http://www.w3.org/Graphics/SVG/1.1/DTD/svg11.dtd">
<svg version="1.1" xmlns="http://www.w3.org/2000/svg" xmlns:xlink="http://www.w3.org/1999/xlink" x="0px" y="0px" viewBox="0 0 1000 1000" enable-background="new 0 0 1000 1000" xml:space="preserve">
<metadata> Svg Vector Icons : http://www.onlinewebfonts.com/icon </metadata>
<g><g transform="translate(0.000000,512.000000) scale(0.100000,-0.100000)"><path d="M4528.1,5001.4C3397,4892.2,2340.7,4393.7,1529.7,3582.8C751.3,2804.4,287.4,1855.4,124.4,718.6c-32.6-226.2-32.6-981.6,0-1207.8c163-1136.9,628.8-2085.8,1405.3-2864.2c776.4-776.4,1729.2-1244.2,2864.2-1405.3c226.2-32.6,981.6-32.6,1207.8,0c939.4,134.2,1779.1,490.8,2473.1,1052.5c233.9,189.8,575.1,531.1,761.1,763c533,665.3,893.4,1501.1,1019.9,2367.7c65.2,444.8,61.3,636.5-32.6,1342c-72.9,542.5-97.8,676.7-157.2,860.8c-241.6,749.6-640.3,1399.5-1198.2,1957.4C7438.3,4614.2,5977.5,5139.5,4528.1,5001.4z M3943.4,2342.4c193.6-63.3,412.2-203.2,577.1-368.1l145.7-145.7l161,155.3c178.3,172.5,327.8,268.4,538.7,347c201.3,74.8,533,86.3,764.9,28.8c463.9-115,872.3-475.4,1021.8-897.2l26.8-78.6l-145.7-216.6l-145.7-218.6l-15.3,128.5c-61.3,533-548.3,943.2-1117.7,943.2c-207.1,0-389.2-57.5-573.2-180.2c-168.7-113.1-279.9-245.4-404.5-481.2c-47.9-93.9-95.9-174.5-103.5-180.2c-9.6-3.8-44.1,44.1-78.6,111.2c-164.9,312.5-287.6,458.2-488.9,579c-180.2,107.4-348.9,153.4-575.1,149.5c-312.5-1.9-554-105.4-776.4-329.7c-281.8-285.7-373.8-684.4-243.5-1065.9c157.2-462,536.8-958.6,1146.5-1501.1c266.5-235.8,621.1-531,856.9-711.3l151.5-115l256.9,193.6c402.6,302.9,789.8,634.6,1065.9,912.6l255,256.9l36.4-84.4c19.2-44.1,55.6-128.5,78.6-186l46-103.5l-268.4-260.7c-145.7-143.8-377.7-354.7-515.7-469.7c-304.8-253.1-922.1-720.8-952.8-720.8c-32.6,0-571.3,410.3-903,686.3C2841-707.8,2304.2-36.8,2129.8,565.2c-61.4,212.8-69,517.6-19.2,728.5c120.8,506.1,536.8,922.1,1067.9,1064C3372.1,2409.5,3757.4,2401.8,3943.4,2342.4z M6330.2,852.8c159.1-373.8,291.4-678.7,297.2-678.7s120.8,176.4,256.9,393c134.2,216.6,247.3,391.1,251.1,387.3c1.9-3.8,84.4-270.3,182.1-594.3l178.3-590.5h218.6H7931v-191.7v-191.7h-358.5h-360.4l-93.9,325.9C7064.5-107.7,7018.5,38,7012.7,38c-5.8,0-105.4-151.5-222.4-335.5c-115-184.1-214.7-335.5-220.5-335.5c-5.8,0-126.5,272.2-266.5,603.9c-141.9,331.7-262.6,603.9-268.4,603.9c-5.8,0-126.5-272.2-268.4-603.9c-141.9-333.6-264.6-598.2-272.2-590.5c-5.8,9.6-94,138-195.6,289.5L5116.7-56l-86.3-159.1c-46-88.2-113.1-212.8-145.7-278l-59.4-120.8h-431.4h-431.4v191.7v191.7h322.1h320.2l232,462l230.1,463.9l170.6-262.6c92-143.8,174.5-260.7,182.1-260.7c5.7,0,145.7,306.7,308.7,680.6c163,373.8,299.1,680.6,304.8,680.6C6038.8,1533.3,6173,1226.6,6330.2,852.8z"/></g></g>
</svg>